<svg width="40" height="40" viewBox="0 0 40 40" fill="none" xmlns="http://www.w3.org/2000/svg">
<g clip-path="url(#clip0_2017_38)">
<path d="M20.0705 0.468834C22.722 0.372194 25.2176 0.909312 27.6175 1.90383C29.3325 2.61454 30.9049 3.5763 32.353 4.74284C34.1419 6.18391 35.6595 7.86717 36.8701 9.81734C38.1198 11.8305 38.9704 14.0034 39.4434 16.3316C39.8058 18.115 39.8225 19.917 39.7304 21.7115C39.6201 23.8618 39.0515 25.9209 38.1905 27.9023C37.4696 29.5615 36.5239 31.0835 35.4033 32.4867C34.256 33.9233 32.9228 35.1818 31.408 36.2419C29.7603 37.3951 27.9877 38.2942 26.0746 38.906C24.8099 39.3104 23.5172 39.6149 22.1853 39.675C21.0061 39.7281 19.8204 39.8078 18.6453 39.741C16.5613 39.6225 14.5435 39.1461 12.6121 38.335C10.8883 37.6111 9.28698 36.6707 7.83193 35.5033C6.82624 34.6965 5.9139 33.7878 5.07678 32.7932C3.96539 31.4728 3.0431 30.0419 2.30133 28.4942C1.44971 26.7173 0.807537 24.8611 0.636882 22.8893C0.510792 21.4324 0.405116 19.9565 0.496706 18.502C0.634091 16.3203 1.17485 14.2135 2.09138 12.206C2.89024 10.4563 3.89025 8.84738 5.14232 7.39047C6.73423 5.53812 8.58467 4.01193 10.7263 2.82492C12.5843 1.79507 14.5521 1.07814 16.6357 0.729005C17.7508 0.542136 18.8985 0.549257 20.0705 0.468834ZM28.6826 21.5374C28.3236 22.302 27.9646 23.0666 27.5663 23.9152C26.8533 22.1512 26.1796 20.5051 25.5228 18.8524C25.0722 17.7187 24.5973 16.5912 24.2215 15.4324C23.8837 14.3907 24.2414 13.8047 25.2623 13.4516C25.3439 13.4234 25.4089 13.3472 25.5625 13.2335C22.4877 13.2335 19.535 13.2335 16.5092 13.2335C16.6007 13.3387 16.6371 13.4228 16.689 13.4338C17.8051 13.6719 18.3262 14.5076 18.7264 15.4598C19.2196 16.633 19.7099 17.8076 20.1814 18.9896C20.2378 19.1311 20.2192 19.3478 20.15 19.4872C19.4165 20.9649 18.6659 22.4341 17.919 23.9051C17.87 24.0017 17.8133 24.0944 17.7497 24.2076C17.703 24.1473 17.6727 24.1212 17.6586 24.0882C16.4311 21.2232 15.1965 18.3612 13.9833 15.4902C13.5871 14.5527 13.7693 14.0625 14.6142 13.5086C14.6989 13.4531 14.7523 13.3499 14.8603 13.221C11.8831 13.221 9.00155 13.221 6.11998 13.221C6.16346 13.3647 6.23962 13.4545 6.33634 13.4942C6.92968 13.7376 7.45125 14.0996 7.79439 14.6296C8.32918 15.4558 8.86739 16.2932 9.27755 17.1841C10.972 20.8649 12.6189 24.5676 14.2833 28.2621C14.5394 28.8305 14.7911 29.4009 15.0578 29.9642C15.0995 30.0523 15.2032 30.1466 15.2925 30.164C15.3497 30.1751 15.4397 30.0558 15.5028 29.9842C15.5445 29.937 15.565 29.8709 15.5942 29.8129C17.0838 26.8542 18.5732 23.8954 20.0631 20.9368C20.2357 20.5941 20.4108 20.2526 20.6158 19.8496C20.705 20.0404 20.7673 20.163 20.8208 20.2894C22.0522 23.195 23.2828 26.1009 24.5133 29.0069C24.65 29.3297 24.7789 29.6562 24.9261 29.9741C24.9637 30.0554 25.0695 30.1739 25.1227 30.1637C25.2134 30.1464 25.2943 30.0473 25.3656 29.9699C25.4075 29.9244 25.4231 29.8546 25.4504 29.7957C27.0941 26.2484 28.7243 22.6949 30.3883 19.1573C31.0181 17.8185 31.706 16.5058 32.4058 15.2018C32.7835 14.4981 33.2935 13.8874 34.0096 13.4821C34.082 13.4411 34.1266 13.3509 34.2185 13.2433C32.0879 13.2433 30.0371 13.2433 27.9862 13.2433C27.9755 13.2766 27.9647 13.31 27.9539 13.3433C28.0631 13.4032 28.1675 13.4755 28.2824 13.5211C29.1047 13.8475 29.6557 14.4344 29.8196 15.299C29.9297 15.8799 29.9649 16.4873 29.9402 17.079C29.875 18.6381 29.3031 20.0668 28.6826 21.5374Z" fill="#F1F0F0"/>
<path d="M28.6969 21.5112C29.303 20.0667 29.8749 18.638 29.9401 17.0789C29.9648 16.4872 29.9296 15.8798 29.8195 15.2989C29.6556 14.4343 29.1046 13.8474 28.2823 13.521C28.1674 13.4754 28.063 13.4031 27.9538 13.3432C27.9646 13.3099 27.9754 13.2765 27.9861 13.2432C30.037 13.2432 32.0878 13.2432 34.2184 13.2432C34.1265 13.3508 34.0819 13.441 34.0095 13.482C33.2934 13.8873 32.7834 14.498 32.4057 15.2017C31.7059 16.5057 31.018 17.8184 30.3882 19.1572C28.7242 22.6948 27.094 26.2483 25.4503 29.7955C25.423 29.8545 25.4074 29.9243 25.3655 29.9698C25.2942 30.0472 25.2133 30.1463 25.1225 30.1636C25.0694 30.1738 24.9636 30.0553 24.926 29.974C24.7788 29.6561 24.6499 29.3296 24.5132 29.0068C23.2827 26.1008 22.0521 23.1949 20.8207 20.2893C20.7672 20.1629 20.7049 20.0403 20.6157 19.8495C20.4107 20.2525 20.2356 20.594 20.063 20.9367C18.5731 23.8953 17.0837 26.8541 15.5941 29.8128C15.5649 29.8708 15.5444 29.9369 15.5027 29.9841C15.4396 30.0557 15.3496 30.175 15.2924 30.1639C15.203 30.1465 15.0994 30.0522 15.0577 29.9641C14.791 29.4008 14.5393 28.8304 14.2832 28.262C12.6187 24.5675 10.9719 20.8648 9.27745 17.184C8.86729 16.2931 8.32908 15.4557 7.79428 14.6295C7.45114 14.0995 6.92957 13.7375 6.33623 13.4941C6.23952 13.4544 6.16335 13.3646 6.11987 13.2209C9.00144 13.2209 11.883 13.2209 14.8602 13.2209C14.7522 13.3498 14.6988 13.453 14.6141 13.5085C13.7692 14.0624 13.587 14.5526 13.9832 15.4901C15.1964 18.3611 16.431 21.2231 17.6585 24.0881C17.6726 24.1211 17.7029 24.1472 17.7496 24.2074C17.8132 24.0943 17.8699 24.0016 17.9189 23.905C18.6658 22.434 19.4164 20.9648 20.1499 19.4871C20.2191 19.3477 20.2377 19.131 20.1813 18.9895C19.7098 17.8075 19.2195 16.6329 18.7263 15.4597C18.3261 14.5075 17.805 13.6718 16.6889 13.4337C16.637 13.4227 16.6006 13.3386 16.5091 13.2334C19.5349 13.2334 22.4876 13.2334 25.5624 13.2334C25.4088 13.3471 25.3438 13.4233 25.2622 13.4515C24.2413 13.8046 23.8836 14.3906 24.2214 15.4323C24.5972 16.5911 25.0721 17.7186 25.5227 18.8523C26.1795 20.505 26.8531 22.1511 27.5662 23.9151C27.9645 23.0665 28.3235 22.3019 28.6969 21.5112Z" fill="#32302F"/>
</g>
<defs>
<clipPath id="clip0_2017_38">
<rect width="39.9845" height="39.9922" fill="white"/>
</clipPath>
</defs>
</svg>
